HIERARCHY
ROOT pelvis
{
  OFFSET 0 0 0
  CHANNELS 6 Xposition Yposition Zposition Zrotation Xrotation Yrotation
  JOINT spine_01
  {
    OFFSET 10.8089 -0.851415 0
    CHANNELS 3 Zrotation Xrotation Yrotation
    JOINT spine_02
    {
      OFFSET 18.8753 3.80116 0
      CHANNELS 3 Zrotation Xrotation Yrotation
      JOINT spine_03
      {
        OFFSET 13.4073 0.420477 0
        CHANNELS 3 Zrotation Xrotation Yrotation
        JOINT clavicle_l
        {
          OFFSET 11.8837 -2.73209 -3.78198
          CHANNELS 3 Zrotation Xrotation Yrotation
          JOINT upperarm_l
          {
            OFFSET 15.7849 0 0
            CHANNELS 3 Zrotation Xrotation Yrotation
            JOINT lowerarm_l
            {
              OFFSET 30.3399 0 0
              CHANNELS 3 Zrotation Xrotation Yrotation
              JOINT hand_l
              {
                OFFSET 26.9751 0 0
                CHANNELS 3 Zrotation Xrotation Yrotation
                End Site
                {
                  OFFSET 0 0 0
                }
              }
            }
          }
        }
        JOINT clavicle_r
        {
          OFFSET 11.8838 -2.7321 3.782
          CHANNELS 3 Zrotation Xrotation Yrotation
          JOINT upperarm_r
          {
            OFFSET -15.7848 0 0
            CHANNELS 3 Zrotation Xrotation Yrotation
            JOINT lowerarm_r
            {
              OFFSET -30.34 0 0
              CHANNELS 3 Zrotation Xrotation Yrotation
              JOINT hand_r
              {
                OFFSET -26.9752 2.55532e-005 0
                CHANNELS 3 Zrotation Xrotation Yrotation
                End Site
                {
                  OFFSET 0 0 0
                }
              }
            }
          }
        }
        JOINT neck_01
        {
          OFFSET 16.5588 -0.355317 0
          CHANNELS 3 Zrotation Xrotation Yrotation
          JOINT head
          {
            OFFSET 9.28362 0.364158 0
            CHANNELS 3 Zrotation Xrotation Yrotation
            End Site
            {
              OFFSET 0 0 0
            }
          }
        }
      }
    }
  }
  JOINT thigh_l
  {
    OFFSET -1.44882 -0.531424 -9.00581
    CHANNELS 3 Zrotation Xrotation Yrotation
    JOINT calf_l
    {
      OFFSET -42.572 0 0
      CHANNELS 3 Zrotation Xrotation Yrotation
      JOINT foot_l
      {
        OFFSET -40.1967 0 0
        CHANNELS 3 Zrotation Xrotation Yrotation
        JOINT ball_l
        {
          OFFSET -10.4538 -16.5779 0.0801573
          CHANNELS 3 Zrotation Xrotation Yrotation
          End Site
          {
            OFFSET 0 0 0
          }
        }
      }
    }
  }
  JOINT thigh_r
  {
    OFFSET -1.44865 -0.531428 9.0058
    CHANNELS 3 Zrotation Xrotation Yrotation
    JOINT calf_r
    {
      OFFSET 42.5723 0 0
      CHANNELS 3 Zrotation Xrotation Yrotation
      JOINT foot_r
      {
        OFFSET 40.1968 0 -1.14441e-005
        CHANNELS 3 Zrotation Xrotation Yrotation
        JOINT ball_r
        {
          OFFSET 10.4538 16.5778 -0.0801582
          CHANNELS 3 Zrotation Xrotation Yrotation
          End Site
          {
            OFFSET 0 0 0
          }
        }
      }
    }
  }
}
MOTION
Frames:	18
Frame Time:	0.0333333
-0.115089 96.3573 195.849 -54.5643 -23.2337 58.2276 -13.2847 3.82432 -10.4973 13.6547 0.363195 -6.95484 2.35272 0.112232 -6.96252 -3.41733 0.819079 75.5925 -62.2738 -9.03571 -73.6715 -3.95121 -6.44492 0.0969394 -115.718 -20.9705 -57.9772 177.992 3.05795 74.8878 -69.0774 -47.4817 -24.6704 -62.1933 -7.18521 1.24188 -52.7805 32.0381 -48.0933 -9.86848 -1.92422 -3.79914 36.6471 -13.7699 2.2506 15.5703 13.8442 9.02352 -37.1588 -7.57805 -3.12756 6.85024 0.851674 13.8669 -91.8836 0.00394553 0.00895438 -67.3742 -22.4758 -34.3304 -26.2113 -7.0555 -0.866601 14.9264 0.780734 9.28441 -91.8836 0.00394077 0.00895108 
-0.402453 92.2051 205.745 -48.2634 -19.9379 70.0374 -14.0184 3.91638 -10.9169 12.9223 0.376669 -7.29338 1.61848 0.108162 -7.30125 -2.92814 -0.936025 72.1725 -49.6946 -8.10627 -70.3011 -10.5262 -6.4651 0.25665 -107.269 -26.941 -70.2118 177.86 1.85093 74.3961 -59.727 -49.5093 -16.6193 -64.4443 -7.23391 1.26655 -47.4067 30.3529 -56.5642 -10.9263 -2.08832 -4.58063 34.6267 -14.699 0.96922 20.5363 14.505 9.27949 -40.0878 -4.2771 -3.23932 9.09874 1.38911 15.2903 -91.8836 0.00394553 0.00895438 -66.4968 -18.7484 -29.4222 -33.4635 -6.72237 -1.74299 28.8843 -1.79215 -10.4712 -91.8836 0.00394077 0.00895108 
-0.354292 87.8107 215.242 -43.4944 -15.6875 80.1589 -14.866 3.66341 -11.5626 12.412 0.268944 -7.07512 1.11069 0.00560175 -7.0798 -2.55794 -0.212029 71.5812 -40.2004 -7.80333 -66.8157 -16.7103 -6.50057 0.403826 -97.7076 -34.7387 -79.5544 177.697 1.14062 73.866 -59.3902 -48.8164 -14.8834 -56.0108 -7.05648 1.16425 -47.7067 24.4976 -63.0567 -11.764 -2.16174 -4.31462 32.5566 -15.026 0.471788 26.6545 15.2324 8.97371 -42.2147 1.08891 -2.91627 13.2348 3.8181 15.0192 -91.8836 0.00394553 0.00895438 -58.872 -17.8948 -22.3544 -54.7798 -4.14383 -4.3987 34.2509 -3.42802 -14.4784 -91.8836 0.00394077 0.00895108 
0.233947 85.161 223.947 -40.5484 -11.7001 88.5663 -15.9855 3.39963 -12.3654 11.9859 0.0103058 -6.66318 0.689859 -0.238664 -6.66065 -2.45744 3.18761 74.2625 -37.4372 -6.64598 -65.4034 -17.0312 -6.50284 0.411317 -96.2905 -41.0288 -88.8321 177.39 0.692051 74.1587 -69.9907 -45.0005 -22.4533 -34.9627 -6.69324 0.80456 -56.3621 16.5311 -66.8615 -12.3015 -2.09793 -3.14926 31.2129 -14.5758 1.28681 34.2857 16.044 9.50128 -43.6793 1.35933 -3.3149 17.4805 8.00686 12.7978 -91.8836 0.00394553 0.00895438 -55.6599 -15.8314 -18.6811 -63.6902 -0.243511 -5.14392 33.683 -3.33291 -13.7069 -91.8836 0.00394077 0.00895108 
1.23365 83.9889 231.903 -40.1918 -7.64949 95.97 -17.3957 3.11841 -13.0222 11.42 -0.278446 -6.39915 0.129773 -0.518579 -6.38923 -3.10877 7.21707 78.4948 -40.6156 -5.25235 -64.9593 -14.5216 -6.48622 0.352169 -102.197 -44.8469 -97.6263 176.883 0.735215 75.8461 -79.0768 -40.4228 -31.5271 -14.3233 -6.48491 0.347311 -65.7672 -0.072423 -72.0115 -12.7945 -1.97051 -2.03349 30.6392 -13.8372 2.70174 40.8676 16.4181 10.0561 -43.9027 1.29727 -3.64043 18.9039 8.76181 11.9719 -91.8836 0.00394553 0.00895438 -54.9099 -14.8005 -18.3247 -66.7138 3.1655 -5.31296 29.6954 -2.42038 -12.1433 -91.8836 0.00394077 0.00895108 
2.5105 83.6379 239.275 -41.9363 -3.32323 103.173 -18.8468 2.88447 -13.1659 10.7203 -0.467491 -6.31599 -0.565455 -0.706127 -6.30234 -4.05979 9.6873 81.9777 -46.3092 -4.25158 -63.13 -14.1156 -6.48378 0.342571 -106.972 -49.2447 -100.519 176.178 1.65745 78.903 -74.3924 -40.0505 -31.7813 -11.9354 -6.47169 0.290248 -72.6359 -14.4042 -80.7991 -13.5732 -1.86503 -1.67688 30.1212 -13.209 3.56189 44.4841 16.4449 10.2663 -43.2772 1.42423 -3.87303 17.4568 11.7621 10.9517 -91.8836 0.00394553 0.00895438 -57.079 -14.5772 -20.4329 -66.3241 5.82755 -5.2162 23.9668 -1.381 -10.327 -91.8836 0.00394077 0.00895108 
3.94131 83.5768 246.235 -44.3288 0.728836 110.452 -19.9339 2.55176 -12.8177 10.1068 -0.635109 -6.21101 -1.17574 -0.871903 -6.1944 -4.64874 10.2989 83.872 -51.5678 -3.37025 -59.0271 -16.7062 -6.50055 0.403702 -103.286 -55.8766 -93.316 175.224 3.64797 83.0298 -55.3606 -44.4944 -20.9968 -29.3303 -6.62046 0.687982 -75.1382 -27.8551 -89.7886 -14.7967 -1.75133 -1.90665 28.95 -12.4603 3.6999 45.7028 16.5946 9.77085 -42.1251 2.09656 -4.03858 13.6632 17.2336 8.65992 -91.8836 0.00394553 0.00895438 -61.3824 -14.2692 -22.9685 -63.6282 7.25849 -5.02766 17.3985 0.70638 -8.72239 -91.8836 0.00394077 0.00895108 
5.3428 83.4902 252.769 -46.8397 4.12116 117.638 -20.4295 1.82868 -12.2202 9.74248 -0.962425 -5.93472 -1.5357 -1.19224 -5.90977 -5.03549 10.159 85.1342 -54.8822 -2.68894 -53.4365 -20.388 -6.52908 0.489249 -87.6032 -61.5637 -75.0216 173.875 6.53453 88.0914 -33.2059 -47.9557 -5.76435 -48.8326 -6.91776 1.05666 -78.1 -40.5236 -96.1522 -16.4349 -1.55385 -2.22917 26.8721 -11.2394 3.90504 45.524 17.3973 8.70228 -40.6619 2.61678 -4.13582 6.09818 21.3838 8.05461 -91.8836 0.00394553 0.00895438 -66.5722 -13.3871 -25.3698 -59.5828 6.85585 -4.82811 10.5689 4.35284 -7.29209 -91.8836 0.00394077 0.00895108 
6.52717 83.2182 258.862 -50.0344 7.01006 124.696 -20.4907 0.785576 -11.5446 9.6361 -1.43584 -5.53318 -1.63688 -1.65486 -5.49448 -5.6085 10.2544 86.8605 -55.3403 -3.36719 -47.4266 -24.3361 -6.56567 0.5787 -66.3295 -63.2761 -54.1399 171.964 9.74753 94.0408 -23.6609 -47.8788 1.85816 -54.1326 -7.01882 1.13778 -88.0276 -52.2878 -103.194 -18.3432 -1.27724 -2.51213 23.9957 -9.66738 4.70056 43.6733 18.6445 7.84288 -38.8224 2.69436 -4.10089 -3.8614 23.3885 10.5609 -91.8836 0.00394553 0.00895438 -72.2494 -11.6892 -28.4471 -54.9811 6.37471 -4.47492 3.98539 6.95166 -5.64669 -91.8836 0.00394077 0.00895108 
7.42634 82.6061 264.635 -54.1983 9.63892 132.027 -20.4972 -0.101574 -10.8615 9.74908 -1.86098 -5.14356 -1.52068 -2.06749 -5.09204 -6.38803 10.8805 89.1353 -52.759 -5.8379 -41.6348 -29.6744 -6.6247 0.695133 -49.8352 -63.0962 -41.7808 169.57 12.4738 100.359 -26.4363 -46.3572 0.351279 -46.8283 -6.8818 1.02383 -107.952 -62.1971 -117.541 -20.2661 -0.959835 -2.81091 20.8621 -7.94349 5.71246 39.764 19.4376 7.26317 -36.4912 2.62931 -4.08491 -9.92815 26.2918 14.1733 -91.8836 0.00394553 0.00895438 -78.3948 -8.8537 -32.2079 -50.3282 6.02222 -4.00349 -2.17586 8.43402 -3.95916 -91.8836 0.00394077 0.00895108 
8.15505 81.5745 270.137 -58.8673 11.8878 139.813 -20.6953 -0.56845 -10.1359 10.0575 -2.1564 -4.81176 -1.21306 -2.34712 -4.75214 -7.12558 12.1557 91.396 -48.7243 -8.65623 -36.1561 -37.5395 -6.73052 0.855476 -40.3284 -63.1105 -38.8483 167.273 14.1576 105.787 -28.9691 -45.0763 -1.6051 -39.3469 -6.75762 0.890107 -131.282 -68.3017 -136.613 -21.8366 -0.573258 -2.98965 18.4854 -5.93288 6.16303 36.2504 19.5102 4.30655 -37.8829 4.3773 -4.38334 -3.59544 28.5713 20.6745 -91.8836 0.00394553 0.00895438 -84.817 -5.10518 -35.6801 -45.5902 5.78096 -3.50655 -7.96358 10.2731 -1.98387 -91.8836 0.00394077 0.00895108 
8.94931 80.7941 274.92 -63.4203 12.894 147.091 -21.0445 -1.08533 -9.06172 10.5061 -2.41928 -4.42653 -0.768609 -2.58721 -4.36124 -7.6856 14.2689 93.2982 -45.6576 -10.5118 -30.419 -47.52 -6.89461 1.03547 -35.7158 -62.5176 -41.1479 165.777 14.9298 109.024 -23.7748 -45.2662 2.72821 -38.5787 -6.74578 0.875375 -146.067 -72.384 -148.486 -22.7397 -0.0846615 -2.8953 17.6855 -3.63241 5.67366 33.6422 20.4438 0.10087 -40.0577 5.33262 -4.46196 6.02038 28.9268 27.4479 -91.8836 0.00394553 0.00895438 -91.8166 -1.23738 -38.6141 -39.3395 5.43159 -2.82831 -14.5365 13.0814 1.21092 -91.8836 0.00394077 0.00895108 
9.97164 80.8499 278.784 -67.3383 11.7895 152.942 -21.3562 -1.7554 -7.70947 10.9901 -2.69516 -3.84669 -0.289403 -2.83395 -3.77567 -8.20812 17.0152 95.03 -44.3815 -11.9973 -23.4044 -57.9529 -7.09625 1.18994 -33.0156 -60.0465 -44.6092 165.264 15.3361 109.783 -11.3702 -46.2632 14.3652 -41.7281 -6.79535 0.93454 -153.778 -75.5409 -153.038 -22.9501 0.417722 -2.63544 18.1993 -1.60425 4.6719 35.2054 22.9142 -4.30333 -44.0825 5.57 -4.32357 10.4732 25.4984 27.1583 -91.8836 0.00394553 0.00895438 -99.3283 2.17554 -41.1356 -32.0099 5.08749 -1.79787 -20.1923 14.099 4.83378 -91.8836 0.00394077 0.00895108 
10.9811 81.9051 281.878 -70.5653 8.42604 157.478 -21.4798 -2.3789 -6.54042 11.4256 -2.88865 -3.10185 0.142988 -3.00011 -3.02587 -8.95213 19.6609 97.0433 -43.1835 -14.0766 -14.0233 -67.1708 -7.29621 1.29441 -32.3947 -55.9304 -49.4322 165.387 15.7605 108.882 4.20943 -45.4517 29.9304 -43.93 -6.83165 0.97402 -164.835 -76.0913 -160.233 -22.7517 0.780306 -2.41117 18.7706 -0.450875 4.09421 37.2868 24.8021 -6.78418 -45.989 6.00151 -3.98744 12.85 18.0665 22.5681 -91.8836 0.00394553 0.00895438 -106.527 5.02827 -43.3519 -26.8188 4.85154 -0.836036 -20.8314 8.86427 8.4417 -91.8836 0.00394077 0.00895108 
11.6396 83.596 284.467 -73.036 3.78668 161.384 -21.3719 -2.78268 -5.91727 11.8002 -2.95371 -2.42471 0.517161 -3.0487 -2.34513 -10.05 21.5637 99.642 -39.602 -15.6429 -1.98545 -74.2618 -7.45077 1.34927 -36.3034 -51.4274 -57.9422 165.739 16.211 107.409 17.3722 -40.8816 43.32 -44.0984 -6.83741 0.979991 -179.418 -73.3302 -171.673 -22.4801 0.975605 -2.27215 18.4337 0.0194442 4.48267 37.312 24.7145 -6.94933 -44.3237 5.89826 -3.47596 13.0268 12.5589 18.5068 -91.8836 0.00394553 0.00895438 -112.753 6.97955 -44.4367 -26.73 4.00147 -0.280959 -13.5573 -1.54394 12.5563 -91.8836 0.00394077 0.00895108 
11.9483 85.3954 286.696 -74.7492 -0.911012 165.09 -21.1001 -2.99995 -5.86349 12.1322 -3.00695 -2.04667 0.850389 -3.09776 -1.96286 -11.4033 22.696 102.721 -33.7423 -14.0363 11.1307 -78.8806 -7.56662 1.37744 -45.0561 -47.0448 -69.4237 166.118 16.4879 106.005 24.2997 -33.2499 50.7109 -43.7736 -6.83978 0.982459 171.224 -69.9555 179.716 -22.2683 1.1353 -2.19223 17.4143 0.633884 5.45078 36.3575 23.1372 -6.33411 -41.3657 5.64394 -2.95352 12.2959 8.81772 15.2206 -91.8836 0.00394553 0.00895438 -118.839 8.16015 -42.8668 -29.6712 -6.57555 -1.31571 -1.48634 -0.352613 18.9891 -91.8836 0.00394077 0.00895108 
12.0642 87.0181 288.587 -76.0493 -5.57572 168.629 -20.8174 -3.20868 -6.08545 12.3907 -3.15886 -1.99795 1.11005 -3.25284 -1.90766 -12.7817 23.411 105.792 -28.8355 -8.38225 22.7586 -80.6796 -7.60987 1.3849 -55.3633 -42.9354 -79.6214 166.463 16.5001 104.854 25.2386 -24.4853 53.1977 -43.9274 -6.84084 0.98357 166.894 -70.7132 173.878 -22.0521 1.36434 -2.20178 16.5778 1.86397 6.24268 35.0767 20.8514 -5.73804 -38.1694 5.38321 -2.44905 11.2292 5.81041 12.5541 -91.8836 0.00394553 0.00895438 -125.07 8.68316 -39.5471 -33.2324 -9.54939 -1.9913 9.53326 -1.57715 22.8207 -91.8836 0.00394077 0.00895108 
12.0139 88.1976 290.19 -77.3354 -10.9063 171.944 -20.6545 -3.43903 -6.2801 12.5 -3.3339 -2.13509 1.21978 -3.43395 -2.03855 -13.9312 23.9245 108.241 -27.5625 -0.633227 31.9297 -79.241 -7.5753 1.37912 -63.3128 -40.6578 -85.0417 166.724 16.4083 104.03 22.7463 -16.0536 53.5165 -44.3324 -6.84068 0.983414 159.557 -77.9982 164.308 -21.7684 1.6128 -2.32519 16.4086 3.36443 6.52981 33.9912 18.3077 -5.18901 -35.8917 5.20184 -2.2585 10.436 2.46335 10.4332 -91.8836 0.00394553 0.00895438 -130.467 8.91643 -35.0644 -37.9871 -9.43547 -2.54893 18.1761 -4.34662 25.458 -91.8836 0.00394077 0.00895108 
